<svg width="35" height="35" viewBox="0 0 35 35" fill="none" xmlns="http://www.w3.org/2000/svg">
<path fill-rule="evenodd" clip-rule="evenodd" d="M2.9165 5.83337H7.72642L9.05171 11.6667H28.7829L25.9704 24.7917H9.04409L5.39713 8.75004H2.9165V5.83337ZM25.175 14.5834H9.71525L11.3719 21.875H23.6117L25.175 14.5834ZM12.3957 32.0834C13.6038 32.0834 14.5832 31.104 14.5832 29.8959C14.5832 28.6878 13.6038 27.7084 12.3957 27.7084C11.1875 27.7084 10.2082 28.6878 10.2082 29.8959C10.2082 31.104 11.1875 32.0834 12.3957 32.0834ZM22.604 32.0834C23.8121 32.0834 24.7915 31.104 24.7915 29.8959C24.7915 28.6878 23.8121 27.7084 22.604 27.7084C21.3959 27.7084 20.4165 28.6878 20.4165 29.8959C20.4165 31.104 21.3959 32.0834 22.604 32.0834Z" fill="#FCFAF7"/>
</svg>



