<svg width="25" height="25" viewBox="0 0 25 25" fill="none" xmlns="http://www.w3.org/2000/svg">
<path fill-rule="evenodd" clip-rule="evenodd" d="M0 0H4.6488L5.9297 5.55556H25L22.2817 18.0556H5.92233L2.39753 2.77778H0V0ZM21.513 8.33333H6.57101L8.17219 15.2778H20.002L21.513 8.33333ZM9.16165 25C10.3293 25 11.2759 24.0673 11.2759 22.9167C11.2759 21.7661 10.3293 20.8333 9.16165 20.8333C7.99399 20.8333 7.04742 21.7661 7.04742 22.9167C7.04742 24.0673 7.99399 25 9.16165 25ZM19.028 25C20.1957 25 21.1423 24.0673 21.1423 22.9167C21.1423 21.7661 20.1957 20.8333 19.028 20.8333C17.8604 20.8333 16.9138 21.7661 16.9138 22.9167C16.9138 24.0673 17.8604 25 19.028 25Z" fill="#FCFAF7"/>
</svg>
