<svg width="35" height="35" viewBox="0 0 35 35" fill="none" xmlns="http://www.w3.org/2000/svg">
<path fill-rule="evenodd" clip-rule="evenodd" d="M2.9165 5.83337H7.5653L8.8462 11.3889H27.9165L25.1982 23.8889H8.83883L5.31404 8.61115H2.9165V5.83337ZM24.4295 14.1667H9.48752L11.0887 21.1112H22.9185L24.4295 14.1667ZM12.0781 30.8334C13.2458 30.8334 14.1924 29.9006 14.1924 28.75C14.1924 27.5994 13.2458 26.6667 12.0781 26.6667C10.9105 26.6667 9.96392 27.5994 9.96392 28.75C9.96392 29.9006 10.9105 30.8334 12.0781 30.8334ZM21.9445 30.8334C23.1122 30.8334 24.0588 29.9006 24.0588 28.75C24.0588 27.5994 23.1122 26.6667 21.9445 26.6667C20.7769 26.6667 19.8303 27.5994 19.8303 28.75C19.8303 29.9006 20.7769 30.8334 21.9445 30.8334Z" fill="#488A0F"/>
</svg>

