<svg width="24" height="25" viewBox="0 0 24 25" fill="none" xmlns="http://www.w3.org/2000/svg">
<path fill-rule="evenodd" clip-rule="evenodd" d="M24 0.5V24.5H10.1053V19.7H12.6316V22.1H21.4737V2.9H12.6316V5.3H10.1053V0.5H24ZM4.42105 8.3C6.42381 8.3 8.11554 9.56512 8.65903 11.3L18.9474 11.3V13.7H17.6842V16.1H13.8947V13.7L8.65903 13.7C8.11554 15.4349 6.42381 16.7 4.42105 16.7C1.97937 16.7 0 14.8196 0 12.5C0 10.1804 1.97937 8.3 4.42105 8.3ZM4.42105 10.7C3.37462 10.7 2.52632 11.5059 2.52632 12.5C2.52632 13.4941 3.37462 14.3 4.42105 14.3C5.46749 14.3 6.31579 13.4941 6.31579 12.5C6.31579 11.5059 5.46749 10.7 4.42105 10.7Z" fill="#488A0F"/>
</svg>
