<svg width="108" height="108" viewBox="0 0 108 108" fill="none" xmlns="http://www.w3.org/2000/svg">
<g filter="url(#filter0_d_23_164)">
<path d="M4.00574 49.9518H103.994C103.994 22.3633 81.6121 0 54.0001 0C26.388 0 4.00574 22.3633 4.00574 49.9518Z" fill="#488A0F"/>
<path d="M54.017 96.4863C79.7297 96.4863 100.574 75.6597 100.574 49.9688C100.574 24.278 79.7297 3.45142 54.017 3.45142C28.3042 3.45142 7.45996 24.278 7.45996 49.9688C7.45996 75.6597 28.3042 96.4863 54.017 96.4863Z" fill="#FFFAEC"/>
<path d="M104 50.0482C103.989 77.6481 81.612 100 54.0057 100C26.3823 100 4.01134 77.6481 4 50.0482H104Z" fill="#FFFAEC"/>
<path d="M100.568 50.0482C100.557 75.7495 79.7176 96.5656 54.0114 96.5656C28.2882 96.5656 7.45439 75.7495 7.43738 50.0482H100.568Z" fill="#488A0F"/>
<path d="M57.2728 50.0482C57.2615 51.8561 55.8038 53.3069 54.0114 53.3069C52.2019 53.3069 50.7499 51.8504 50.7385 50.0482H57.2728Z" fill="#FFFAEC"/>
<path d="M97.358 50.0482C97.358 54.2534 93.9547 57.6708 89.7289 57.6708C86.6489 57.6708 70.1146 53.579 61.4986 51.3857C60.7953 51.2157 60.4436 50.6206 60.4436 50.0482H97.358Z" fill="#FFFAEC"/>
<path d="M91.5496 71.7143C93.6596 68.0702 92.4061 63.406 88.7589 61.3034C86.0873 59.7619 69.7289 55.041 61.1582 52.6211C59.7742 52.2301 58.7759 53.9473 59.8083 54.9504C66.1838 61.1561 78.4526 72.9611 81.1242 74.5026C84.7771 76.6052 89.4396 75.3584 91.5496 71.7143Z" fill="#FFFAEC"/>
<path d="M75.6733 87.5659C79.3205 85.4634 80.5741 80.7992 78.4697 77.1551C76.9269 74.4858 65.1231 62.2217 58.9121 55.8459C57.9081 54.8145 56.1895 55.8062 56.5809 57.1891C58.9972 65.7524 63.7108 82.097 65.2536 84.772C67.3579 88.4217 72.0205 89.6685 75.6733 87.5659Z" fill="#FFFAEC"/>
<path d="M53.9886 93.3636C58.203 93.3636 61.6177 89.9519 61.6177 85.7467C61.6177 82.6637 57.5337 66.1434 55.3499 57.5234C54.9983 56.1292 53.013 56.1292 52.6557 57.5234C50.4605 66.1434 46.3652 82.658 46.3652 85.741C46.3596 89.9462 49.7742 93.3636 53.9886 93.3636Z" fill="#FFFAEC"/>
<path d="M32.3039 87.5489C35.9511 89.6571 40.6193 88.4103 42.7237 84.7662C44.2665 82.0969 48.9971 65.7524 51.4191 57.1947C51.8105 55.8119 50.0918 54.8144 49.0878 55.8459C42.8768 62.2159 31.0617 74.4687 29.5132 77.138C27.4089 80.7821 28.6567 85.4407 32.3039 87.5489Z" fill="#FFFAEC"/>
<path d="M16.439 71.6803C18.5433 75.3244 23.2058 76.5769 26.8587 74.4743C29.5303 72.9328 41.8105 61.1447 48.1917 54.939C49.224 53.9359 48.2314 52.2187 46.8474 52.6097C38.2767 55.0184 21.9126 59.7336 19.241 61.2694C15.5881 63.3777 14.3346 68.0362 16.439 71.6803Z" fill="#FFFAEC"/>
<path d="M47.5621 50.0482C47.5621 50.632 47.2104 51.2157 46.524 51.3857C37.891 53.5676 21.3624 57.6481 18.2654 57.6481C14.068 57.6481 10.6761 54.259 10.6477 50.0482H47.5621Z" fill="#FFFAEC"/>
<path d="M14.9529 27.8267H20.5514V29.5099H16.9552V31.5671H20.0238V33.2503H16.9552V36.696H14.9473V27.8267H14.9529Z" fill="#488A0F"/>
<path d="M22.0828 27.8267H25.2762C27.1594 27.8267 28.7022 28.4784 28.7022 30.5866C28.7022 32.6212 27.1594 33.4997 25.2762 33.4997H24.0851V36.6904H22.0771V27.8267H22.0828ZM25.1174 31.9071C26.1724 31.9071 26.7397 31.4537 26.7397 30.5866C26.7397 29.7082 26.1724 29.4192 25.1174 29.4192H24.0908V31.9128H25.1174V31.9071ZM24.9132 32.9726L26.3029 31.6918L29.1333 36.6904H26.8871L24.9132 32.9726Z" fill="#488A0F"/>
<path d="M30.3812 32.5815V27.8267H32.3892V32.7912C32.3892 34.5254 32.9337 35.1262 33.932 35.1262C34.9303 35.1262 35.5032 34.5254 35.5032 32.7912V27.8267H37.4374V32.5815C37.4374 35.5569 36.2292 36.8547 33.932 36.8547C31.6348 36.8547 30.3812 35.5569 30.3812 32.5815Z" fill="#488A0F"/>
<path d="M39.4794 27.8267H41.4873V36.6904H39.4794V27.8267Z" fill="#488A0F"/>
<path d="M45.3159 29.5041H42.8712V27.8209H49.7629V29.5041H47.3182V36.6903H45.3102V29.5041H45.3159Z" fill="#488A0F"/>
<path d="M53.8696 27.8267H59.468V29.5099H55.8718V31.5671H58.9405V33.2503H55.8718V36.696H53.8639V27.8267H53.8696Z" fill="#488A0F"/>
<path d="M61.0051 27.8267H63.0131V36.6904H61.0051V27.8267Z" fill="#488A0F"/>
<path d="M65.1005 27.8267H70.6592V29.5099H67.1027V31.2894H70.126V32.9726H67.1027V35.0128H70.7953V36.696H65.1005V27.8267Z" fill="#488A0F"/>
<path d="M71.9864 35.5738L73.1378 34.1967C73.7674 34.7464 74.5899 35.1204 75.3159 35.1204C76.1554 35.1204 76.5638 34.7917 76.5638 34.2647C76.5638 33.7093 76.059 33.5279 75.2819 33.2105L74.1305 32.7175C73.2116 32.3434 72.3381 31.5897 72.3381 30.3032C72.3381 28.8354 73.654 27.6622 75.4975 27.6622C76.5184 27.6622 77.5905 28.0646 78.3505 28.824L77.3352 30.0878C76.751 29.6401 76.1951 29.3908 75.4918 29.3908C74.7998 29.3908 74.3573 29.6798 74.3573 30.1842C74.3573 30.7283 74.9359 30.9266 75.713 31.2327L76.8417 31.6917C77.9251 32.1281 78.6001 32.8478 78.6001 34.106C78.6001 35.5795 77.3693 36.8546 75.2592 36.8546C74.1191 36.8546 72.8939 36.4183 71.9864 35.5738Z" fill="#488A0F"/>
<path d="M81.8674 29.5041H79.4283V27.8209H86.32V29.5041H83.8753V36.6903H81.8674V29.5041Z" fill="#488A0F"/>
<path d="M89.3489 27.8267H91.7482L94.5332 36.6904H92.4118L91.249 32.2018C91.0051 31.3177 90.7669 30.2693 90.5287 29.3398H90.4719C90.2564 30.2749 90.0182 31.3121 89.7743 32.2018L88.6058 36.6904H86.5525L89.3489 27.8267ZM88.4016 33.0179H92.6727V34.5764H88.4016V33.0179Z" fill="#488A0F"/>
<path d="M28.3051 45.758V45.5256C28.5773 45.4859 28.6227 45.4576 28.6227 45.0439V43.8707C28.6227 43.304 28.3561 43.202 28.1463 43.202C28.0101 43.202 27.8513 43.2417 27.6414 43.4117C27.6471 43.491 27.6528 43.593 27.6528 43.695V45.0665C27.6528 45.4462 27.6755 45.4803 27.9874 45.5199V45.7523H26.456V45.5199C26.7566 45.4803 26.7849 45.4576 26.7849 45.0665V43.8311C26.7849 43.3493 26.5978 43.1907 26.3425 43.1907C26.1723 43.1907 26.0079 43.253 25.8207 43.3947V45.0665C25.8207 45.4462 25.8604 45.4803 26.1156 45.5199V45.7523H24.5558V45.5199C24.9301 45.4746 24.9528 45.4463 24.9528 45.0382V43.5987C24.9528 43.219 24.9472 43.1567 24.6239 43.1113V42.896C25.0039 42.8563 25.3953 42.7599 25.8207 42.6353C25.8207 42.7996 25.8207 42.9866 25.8207 43.1453C25.9681 43.0433 26.0929 42.9526 26.2347 42.8676C26.4446 42.7373 26.6091 42.6579 26.8133 42.6579C27.1933 42.6579 27.4486 42.8619 27.5734 43.1737C27.7379 43.049 27.874 42.9583 28.0442 42.8393C28.1916 42.7429 28.3845 42.6579 28.5887 42.6579C29.1786 42.6579 29.4906 43.0603 29.4906 43.7517V45.0722C29.4906 45.4463 29.5246 45.4746 29.8592 45.5256V45.758H28.3051Z" fill="#488A0F"/>
<path d="M32.497 45.8373C32.3155 45.8373 32.1623 45.7749 32.0772 45.6956C31.9808 45.6163 31.9354 45.5199 31.9014 45.4462C31.6405 45.6163 31.3115 45.8429 31.181 45.8429C30.5968 45.8429 30.2565 45.3896 30.2565 44.9645C30.2565 44.6018 30.421 44.4431 30.7783 44.2958C31.181 44.1484 31.7199 43.9841 31.873 43.848V43.5477C31.873 43.1963 31.7426 42.9979 31.4533 42.9979C31.3399 42.9979 31.2434 43.0546 31.181 43.134C31.1016 43.2416 31.0733 43.3777 31.0165 43.5817C30.9655 43.763 30.8577 43.814 30.7216 43.814C30.5458 43.814 30.3189 43.6497 30.3189 43.4627C30.3189 43.338 30.3983 43.253 30.5571 43.1453C30.8634 42.9413 31.2661 42.7429 31.6461 42.6636C31.9184 42.6636 32.151 42.7259 32.3495 42.8619C32.6444 43.066 32.7239 43.3493 32.7239 43.7007V44.8738C32.7239 45.2025 32.8316 45.2819 32.9394 45.2819C33.0075 45.2819 33.0755 45.2592 33.1493 45.2252L33.223 45.4576L32.497 45.8373ZM31.873 44.1257C31.7482 44.1938 31.6291 44.2618 31.493 44.3354C31.2831 44.4431 31.1583 44.5678 31.1583 44.8002C31.1583 45.1799 31.4249 45.3159 31.5724 45.3159C31.6688 45.3159 31.7653 45.3102 31.873 45.2082C31.873 44.8852 31.873 44.4431 31.873 44.1257Z" fill="#488A0F"/>
<path d="M36.9835 45.758C36.4504 45.7523 35.9909 45.758 35.7413 45.7693C35.7186 45.7353 34.8905 44.4658 34.8622 44.4148C34.7998 44.3355 34.7601 44.3015 34.726 44.2901C34.7033 44.2845 34.6806 44.2845 34.6636 44.2845V45.0099C34.6636 45.4519 34.6977 45.4633 35.0663 45.5199V45.7523H33.3931V45.5199C33.7561 45.4633 33.7901 45.4519 33.7901 45.0099V41.9099C33.7901 41.5415 33.7561 41.5075 33.3931 41.4281V41.2184C33.8241 41.1844 34.2722 41.1108 34.6636 40.9861C34.6636 41.2638 34.6636 41.5358 34.6636 41.8078V44.0861C34.8224 44.0464 34.9359 43.9274 35.0437 43.8197C35.2138 43.6497 35.4634 43.3494 35.5428 43.2133C35.6222 43.066 35.5144 42.998 35.2649 42.9526V42.726L36.7226 42.6693V42.8846C36.3029 42.9526 36.0817 43.0433 35.8434 43.2927C35.7357 43.4004 35.5825 43.5874 35.3953 43.8027C35.5655 44.0691 36.2065 44.9305 36.3936 45.1629C36.6092 45.4123 36.6943 45.4689 36.9835 45.5086V45.758Z" fill="#488A0F"/>
<path d="M39.6552 45.0891C39.2411 45.7012 38.6966 45.8372 38.4073 45.8372C37.4941 45.8372 36.9779 45.1628 36.9779 44.358C36.9779 43.882 37.2048 43.4116 37.4884 43.1339C37.7947 42.8279 38.1747 42.6578 38.5491 42.6578C39.2184 42.6578 39.6778 43.2076 39.6722 43.763C39.6722 43.8763 39.6665 43.9953 39.5814 44.0123C39.451 44.0463 38.4924 44.0917 37.8344 44.12C37.8628 44.8398 38.2655 45.2081 38.7533 45.2081C39.0199 45.2081 39.2865 45.1118 39.5304 44.9021L39.6552 45.0891ZM38.4186 42.9355C38.1464 42.9355 37.9138 43.2529 37.8741 43.7913C38.152 43.7856 38.413 43.78 38.6966 43.7686C38.793 43.763 38.8327 43.746 38.8327 43.6326C38.8384 43.2982 38.6852 42.9355 38.4186 42.9355Z" fill="#488A0F"/>
<path d="M44.6465 42.9697C44.3175 43.015 44.2495 43.083 44.0793 43.4514C43.9092 43.8028 43.7163 44.3128 43.3249 45.2593C42.8598 46.3587 42.735 46.8064 42.6046 47.1975C42.5592 47.3448 42.4741 47.3958 42.3607 47.3958C42.0941 47.3958 41.8218 47.1975 41.8218 46.9595C41.8218 46.8518 41.8615 46.7951 42.0033 46.7101C42.2699 46.5628 42.4514 46.4324 42.5762 46.2227C42.6443 46.1094 42.718 45.9223 42.7464 45.843C42.7747 45.7467 42.7577 45.6843 42.718 45.5823C42.3663 44.6019 41.9296 43.6724 41.8048 43.389C41.68 43.1057 41.6006 43.0207 41.2716 42.9753V42.7373H42.9733V42.9697C42.6783 43.015 42.6329 43.066 42.7067 43.2757L43.2398 44.7095C43.3873 44.3355 43.6369 43.7121 43.756 43.3324C43.8241 43.117 43.7333 43.0263 43.393 42.9697V42.7373H44.6409V42.9697H44.6465Z" fill="#488A0F"/>
<path d="M46.3767 42.6578C47.3353 42.6578 47.9422 43.3776 47.9422 44.1937C47.9422 45.2875 47.1538 45.8372 46.3483 45.8372C45.3217 45.8372 44.7374 45.0608 44.7374 44.2674C44.7374 43.2302 45.5939 42.6578 46.3767 42.6578ZM46.2916 42.9299C45.9966 42.9299 45.713 43.2359 45.713 44.069C45.713 44.9134 45.991 45.5595 46.4221 45.5595C46.683 45.5595 46.9609 45.3838 46.9609 44.392C46.9609 43.4456 46.717 42.9299 46.2916 42.9299Z" fill="#488A0F"/>
<path d="M51.7879 45.5937C51.3795 45.6504 50.9427 45.7354 50.4946 45.8374C50.4946 45.69 50.4946 45.5257 50.4946 45.3727C50.2167 45.605 49.9274 45.8374 49.553 45.8374C48.9802 45.8374 48.6625 45.469 48.6625 44.8626V43.4571C48.6625 43.1454 48.6228 43.1114 48.4356 43.0604L48.2938 43.0207V42.8054C48.6398 42.794 49.1787 42.743 49.5587 42.692C49.5474 42.9754 49.536 43.3324 49.536 43.7178V44.7096C49.536 45.1516 49.7629 45.299 50.0011 45.299C50.194 45.299 50.3415 45.2593 50.4889 45.1006V43.4628C50.4889 43.1511 50.4549 43.0944 50.2621 43.0604L50.0579 43.0207V42.8054C50.4549 42.794 51.0278 42.743 51.3681 42.692V44.9079C51.3681 45.2593 51.4078 45.3387 51.629 45.3557L51.7765 45.367V45.5937H51.7879Z" fill="#488A0F"/>
<path d="M53.9035 45.758H52.1055V45.5257C52.4685 45.486 52.5025 45.452 52.5025 45.0439V43.5534C52.5025 43.2134 52.4742 43.1794 52.1565 43.1114V42.9017C52.5763 42.8563 52.962 42.7713 53.3817 42.641C53.3817 42.8677 53.3817 43.1567 53.3817 43.3777C53.688 42.9074 53.9319 42.658 54.2098 42.658C54.4594 42.658 54.6523 42.828 54.6523 43.066C54.6523 43.4004 54.414 43.5874 54.3063 43.6441C54.2098 43.6838 54.1418 43.6498 54.0964 43.6101C53.983 43.5138 53.8922 43.4061 53.7788 43.4061C53.6767 43.4061 53.5065 43.4968 53.3817 43.7518V45.0439C53.3817 45.452 53.4271 45.4747 53.9035 45.5257V45.758Z" fill="#488A0F"/>
<path d="M56.3085 45.758V45.5257C56.6942 45.4633 56.7112 45.4293 56.7112 45.0043V41.9099C56.7112 41.5586 56.6715 41.5132 56.3141 41.4395V41.2242C56.7849 41.1788 57.2614 41.0938 57.5847 40.9918C57.5847 41.2979 57.5847 41.6039 57.5847 41.9156V45.0043C57.5847 45.452 57.6074 45.4803 57.9931 45.5257V45.758H56.3085Z" fill="#488A0F"/>
<path d="M58.3052 45.7579V45.5255C58.6739 45.4802 58.7136 45.4518 58.7136 44.9701V43.644C58.7136 43.1906 58.6795 43.1622 58.3619 43.1226V42.8959C58.793 42.8505 59.2184 42.7599 59.5928 42.6522C59.5928 42.9356 59.5928 43.2189 59.5928 43.4966V44.9701C59.5928 45.4348 59.6211 45.4802 60.0125 45.5255V45.7579H58.3052ZM59.105 42.2385C58.844 42.2385 58.6171 42.0231 58.6171 41.7568C58.6171 41.4791 58.8497 41.275 59.1163 41.275C59.3886 41.275 59.6041 41.4791 59.6041 41.7568C59.5984 42.0174 59.3829 42.2385 59.105 42.2385Z" fill="#488A0F"/>
<path d="M63.4271 42.9697C63.0584 43.032 63.0073 43.1057 62.8598 43.4231C62.6216 43.9671 62.2699 44.8002 61.8615 45.8317H61.5779C61.2376 44.9872 60.9256 44.1881 60.5967 43.406C60.4719 43.1113 60.4095 43.032 60.0521 42.9697V42.7373H61.7538V42.9697C61.4475 43.032 61.4078 43.083 61.4872 43.3097C61.6573 43.7801 61.9013 44.4318 62.009 44.7095C62.1225 44.4092 62.355 43.8198 62.5138 43.3494C62.5819 43.1454 62.5706 43.015 62.1451 42.9697V42.7373H63.4214V42.9697H63.4271Z" fill="#488A0F"/>
<path d="M66.1668 45.0891C65.7527 45.7012 65.2082 45.8372 64.9246 45.8372C64.0114 45.8372 63.4952 45.1628 63.4952 44.358C63.4952 43.882 63.7221 43.4116 64.0057 43.1339C64.312 42.8279 64.6921 42.6578 65.0664 42.6578C65.7301 42.6578 66.1952 43.2076 66.1895 43.763C66.1895 43.8763 66.1838 43.9953 66.0988 44.0123C65.9683 44.0463 65.0097 44.0917 64.3517 44.12C64.3801 44.8398 64.7828 45.2081 65.2706 45.2081C65.5372 45.2081 65.8038 45.1118 66.0477 44.9021L66.1668 45.0891ZM64.9303 42.9355C64.658 42.9355 64.4255 43.2529 64.3858 43.7913C64.6637 43.7856 64.9246 43.78 65.2082 43.7686C65.3047 43.763 65.3444 43.746 65.3444 43.6326C65.35 43.2982 65.1969 42.9355 64.9303 42.9355Z" fill="#488A0F"/>
<path d="M69.536 45.7636C69.4226 45.8203 69.3091 45.8373 69.2638 45.8373C68.7419 45.8373 68.4299 45.5936 68.4299 44.9759V43.0773H67.9932L67.9535 42.998L68.152 42.7373H68.4299V42.1705C68.6625 42.0062 68.9972 41.7908 69.2354 41.6265L69.3262 41.6831C69.3205 41.8645 69.3035 42.2272 69.3148 42.7373H69.9955C70.0579 42.8053 70.0295 43.015 69.9387 43.0773H69.3148V44.7435C69.3148 45.2762 69.5303 45.3329 69.6608 45.3329C69.7742 45.3329 69.865 45.3102 69.9898 45.2649L70.0579 45.5086L69.536 45.7636Z" fill="#488A0F"/>
<path d="M72.6217 45.8373C72.4402 45.8373 72.2871 45.7749 72.202 45.6956C72.1056 45.6163 72.0602 45.5199 72.0261 45.4462C71.7652 45.6163 71.4362 45.8429 71.3058 45.8429C70.7216 45.8429 70.3812 45.3896 70.3812 44.9645C70.3812 44.6018 70.5457 44.4431 70.9031 44.2958C71.3058 44.1484 71.8446 43.9841 71.9978 43.848V43.5477C71.9978 43.1963 71.8673 42.9979 71.578 42.9979C71.4646 42.9979 71.3682 43.0546 71.3058 43.134C71.2264 43.2416 71.198 43.3777 71.1413 43.5817C71.0959 43.763 70.9825 43.814 70.8463 43.814C70.6705 43.814 70.4436 43.6497 70.4436 43.4627C70.4436 43.338 70.523 43.253 70.6818 43.1453C70.9881 42.9413 71.3909 42.7429 71.7709 42.6636C72.0432 42.6636 72.2757 42.7259 72.4743 42.8619C72.7692 43.066 72.8486 43.3493 72.8486 43.7007V44.8738C72.8486 45.2025 72.9564 45.2819 73.0641 45.2819C73.1322 45.2819 73.2003 45.2592 73.274 45.2252L73.3478 45.4576L72.6217 45.8373ZM71.9921 44.1257C71.8673 44.1938 71.7482 44.2618 71.6121 44.3354C71.4022 44.4431 71.2774 44.5678 71.2774 44.8002C71.2774 45.1799 71.544 45.3159 71.6915 45.3159C71.7879 45.3159 71.8843 45.3102 71.9921 45.2082C71.9921 44.8852 71.9921 44.4431 71.9921 44.1257Z" fill="#488A0F"/>
<path d="M75.4918 43.6214C75.316 43.1453 75.0834 42.9299 74.7658 42.9299C74.5786 42.9299 74.4028 43.066 74.4028 43.2926C74.4028 43.5307 74.5729 43.661 74.9246 43.814C75.4748 44.0577 75.8492 44.2901 75.8492 44.8285C75.8492 45.5086 75.2025 45.8429 74.6126 45.8429C74.261 45.8429 73.8923 45.7069 73.7505 45.6389C73.7221 45.4802 73.6597 45.0155 73.6427 44.7775L73.8696 44.7378C74.0114 45.1685 74.2893 45.5652 74.7318 45.5652C74.9927 45.5652 75.1175 45.4066 75.1175 45.2139C75.1175 45.0042 75.0154 44.8455 74.5956 44.6415C74.1475 44.4261 73.7108 44.1881 73.7108 43.6214C73.7108 43.083 74.1532 42.6636 74.8736 42.6636C75.2025 42.6636 75.4521 42.7316 75.6053 42.7656C75.6279 42.9469 75.6847 43.3833 75.713 43.5703L75.4918 43.6214Z" fill="#488A0F"/>
<path d="M77.7323 45.7636C77.6189 45.8203 77.5054 45.8373 77.46 45.8373C76.9382 45.8373 76.6262 45.5936 76.6262 44.9759V43.0773H76.1895L76.1498 42.998L76.3483 42.7373H76.6262V42.1705C76.8588 42.0062 77.1935 41.7908 77.4317 41.6265L77.5224 41.6831C77.5168 41.8645 77.4997 42.2272 77.5111 42.7373H78.1918C78.2542 42.8053 78.2258 43.015 78.135 43.0773H77.5111V44.7435C77.5111 45.2762 77.7266 45.3329 77.8571 45.3329C77.9705 45.3329 78.0613 45.3102 78.1861 45.2649L78.2542 45.5086L77.7323 45.7636Z" fill="#488A0F"/>
<path d="M81.6403 42.9697C81.3113 43.015 81.2433 43.083 81.0731 43.4514C80.9029 43.8028 80.7101 44.3128 80.3187 45.2593C79.8536 46.3587 79.7288 46.8064 79.5983 47.1975C79.553 47.3448 79.4679 47.3958 79.3544 47.3958C79.0878 47.3958 78.8156 47.1975 78.8156 46.9595C78.8156 46.8518 78.8553 46.7951 78.9971 46.7101C79.2637 46.5628 79.4452 46.4324 79.57 46.2227C79.638 46.1094 79.7118 45.9223 79.7401 45.843C79.7685 45.7467 79.7515 45.6843 79.7118 45.5823C79.3601 44.6019 78.9234 43.6724 78.7986 43.389C78.6738 43.1057 78.5944 43.0207 78.2654 42.9753V42.7373H79.967V42.9697C79.6721 43.015 79.6267 43.066 79.7004 43.2757L80.2279 44.7095C80.3754 44.3355 80.625 43.7121 80.7441 43.3324C80.8122 43.117 80.7214 43.0263 80.3811 42.9697V42.7373H81.6233V42.9697H81.6403Z" fill="#488A0F"/>
</g>
<defs>
<filter id="filter0_d_23_164" x="0" y="0" width="108" height="108" filterUnits="userSpaceOnUse" color-interpolation-filters="sRGB">
<feFlood flood-opacity="0" result="BackgroundImageFix"/>
<feColorMatrix in="SourceAlpha" type="matrix" values="0 0 0 0 0 0 0 0 0 0 0 0 0 0 0 0 0 0 127 0" result="hardAlpha"/>
<feOffset dy="4"/>
<feGaussianBlur stdDeviation="2"/>
<feComposite in2="hardAlpha" operator="out"/>
<feColorMatrix type="matrix" values="0 0 0 0 0 0 0 0 0 0 0 0 0 0 0 0 0 0 0.25 0"/>
<feBlend mode="normal" in2="BackgroundImageFix" result="effect1_dropShadow_23_164"/>
<feBlend mode="normal" in="SourceGraphic" in2="effect1_dropShadow_23_164" result="shape"/>
</filter>
</defs>
</svg>
