<svg width="68" height="68" viewBox="0 0 68 68" fill="none" xmlns="http://www.w3.org/2000/svg">
<g filter="url(#filter0_d_140_1425)">
<path d="M4.00342 29.9711H63.9966C63.9966 13.418 50.5672 0 34 0C17.4328 0 4.00342 13.418 4.00342 29.9711Z" fill="#488A0F"/>
<path d="M34.0104 57.8917C49.438 57.8917 61.9446 45.3958 61.9446 29.9813C61.9446 14.5667 49.438 2.0708 34.0104 2.0708C18.5827 2.0708 6.07617 14.5667 6.07617 29.9813C6.07617 45.3958 18.5827 57.8917 34.0104 57.8917Z" fill="#FFFAEC"/>
<path d="M64 30.0289C63.9932 46.5889 50.5672 60 34.0034 60C17.4294 60 4.00681 46.5889 4 30.0289H64Z" fill="#FFFAEC"/>
<path d="M61.9411 30.0289C61.9343 45.4497 49.4306 57.9394 34.0069 57.9394C18.573 57.9394 6.07271 45.4497 6.0625 30.0289H61.9411Z" fill="#488A0F"/>
<path d="M35.9636 30.0289C35.9568 31.1137 35.0821 31.9842 34.0067 31.9842C32.921 31.9842 32.0498 31.1103 32.043 30.0289H35.9636Z" fill="#FFFAEC"/>
<path d="M60.0148 30.0289C60.0148 32.552 57.9728 34.6025 55.4374 34.6025C53.5894 34.6025 43.6688 32.1474 38.4992 30.8314C38.0772 30.7294 37.8662 30.3724 37.8662 30.0289H60.0148Z" fill="#FFFAEC"/>
<path d="M56.5299 43.0286C57.7959 40.8422 57.0438 38.0437 54.8554 36.7821C53.2525 35.8572 43.4374 33.0247 38.295 31.5727C37.4646 31.3381 36.8657 32.3684 37.4851 32.9703C41.3104 36.6937 48.6717 43.7767 50.2746 44.7016C52.4663 45.9632 55.2638 45.2151 56.5299 43.0286Z" fill="#FFFAEC"/>
<path d="M47.0038 52.5395C49.1921 51.278 49.9442 48.4794 48.6816 46.293C47.7559 44.6914 40.6737 37.3329 36.9471 33.5075C36.3447 32.8886 35.3135 33.4837 35.5483 34.3134C36.9981 39.4514 39.8263 49.2581 40.752 50.8631C42.0146 53.053 44.8121 53.8011 47.0038 52.5395Z" fill="#FFFAEC"/>
<path d="M33.993 56.0182C36.5216 56.0182 38.5704 53.9712 38.5704 51.4481C38.5704 49.5983 36.12 39.6861 34.8098 34.5141C34.5988 33.6776 33.4076 33.6776 33.1932 34.5141C31.8761 39.6861 29.4189 49.5948 29.4189 51.4447C29.4155 53.9678 31.4643 56.0182 33.993 56.0182Z" fill="#FFFAEC"/>
<path d="M20.9822 52.5294C23.1705 53.7943 25.9714 53.0462 27.234 50.8598C28.1597 49.2582 30.9981 39.4514 32.4513 34.3168C32.6861 33.4871 31.6549 32.8887 31.0525 33.5075C27.3259 37.3296 20.2369 44.6813 19.3078 46.2828C18.0452 48.4693 18.7939 51.2644 20.9822 52.5294Z" fill="#FFFAEC"/>
<path d="M11.4635 43.0082C12.7261 45.1947 15.5237 45.9462 17.7154 44.6846C19.3183 43.7597 26.6864 36.6869 30.5151 32.9634C31.1345 32.3616 30.539 31.3312 29.7086 31.5659C24.5662 33.011 14.7477 35.8402 13.1448 36.7617C10.953 38.0266 10.2009 40.8218 11.4635 43.0082Z" fill="#FFFAEC"/>
<path d="M30.1374 30.0289C30.1374 30.3792 29.9264 30.7294 29.5146 30.8314C24.3348 32.1406 14.4176 34.5889 12.5594 34.5889C10.041 34.5889 8.00579 32.5554 7.98877 30.0289H30.1374Z" fill="#FFFAEC"/>
<path d="M10.5718 16.696H13.9308V17.706H11.7731V18.9403H13.6143V19.9502H11.7731V22.0177H10.5684V16.696H10.5718Z" fill="#488A0F"/>
<path d="M14.8496 16.696H16.7656C17.8955 16.696 18.8212 17.0871 18.8212 18.352C18.8212 19.5728 17.8955 20.0998 16.7656 20.0998H16.051V22.0143H14.8462V16.696H14.8496ZM16.6704 19.1443C17.3034 19.1443 17.6437 18.8723 17.6437 18.352C17.6437 17.825 17.3034 17.6516 16.6704 17.6516H16.0544V19.1477H16.6704V19.1443ZM16.5478 19.7836L17.3816 19.0151L19.0799 22.0143H17.7322L16.5478 19.7836Z" fill="#488A0F"/>
<path d="M19.8286 19.549V16.696H21.0334V19.6748C21.0334 20.7153 21.3601 21.0758 21.9591 21.0758C22.5581 21.0758 22.9018 20.7153 22.9018 19.6748V16.696H24.0623V19.549C24.0623 21.3342 23.3374 22.1129 21.9591 22.1129C20.5807 22.1129 19.8286 21.3342 19.8286 19.549Z" fill="#488A0F"/>
<path d="M25.2876 16.696H26.4924V22.0143H25.2876V16.696Z" fill="#488A0F"/>
<path d="M28.7891 17.7024H27.3223V16.6925H31.4573V17.7024H29.9904V22.0141H28.7857V17.7024H28.7891Z" fill="#488A0F"/>
<path d="M33.9219 16.696H37.2809V17.706H35.1232V18.9403H36.9644V19.9502H35.1232V22.0177H33.9185V16.696H33.9219Z" fill="#488A0F"/>
<path d="M38.2031 16.696H39.4079V22.0143H38.2031V16.696Z" fill="#488A0F"/>
<path d="M40.6602 16.696H43.9954V17.706H41.8615V18.7737H43.6755V19.7836H41.8615V21.0077H44.0771V22.0177H40.6602V16.696Z" fill="#488A0F"/>
<path d="M44.792 21.3442L45.4829 20.5179C45.8606 20.8478 46.3541 21.0722 46.7897 21.0722C47.2934 21.0722 47.5384 20.875 47.5384 20.5588C47.5384 20.2255 47.2356 20.1167 46.7693 19.9263L46.0784 19.6304C45.5271 19.406 45.003 18.9538 45.003 18.1819C45.003 17.3012 45.7926 16.5973 46.8986 16.5973C47.5112 16.5973 48.1544 16.8387 48.6105 17.2944L48.0013 18.0527C47.6508 17.784 47.3172 17.6344 46.8952 17.6344C46.48 17.6344 46.2146 17.8078 46.2146 18.1105C46.2146 18.4369 46.5617 18.5559 47.028 18.7395L47.7052 19.015C48.3552 19.2768 48.7602 19.7087 48.7602 20.4635C48.7602 21.3476 48.0217 22.1127 46.7557 22.1127C46.0716 22.1127 45.3365 21.8509 44.792 21.3442Z" fill="#488A0F"/>
<path d="M50.7203 17.7024H49.2568V16.6925H53.3918V17.7024H51.925V22.0141H50.7203V17.7024Z" fill="#488A0F"/>
<path d="M55.2091 16.696H56.6487L58.3197 22.0143H57.0468L56.3492 19.3212C56.2028 18.7907 56.0599 18.1616 55.917 17.604H55.8829C55.7536 18.165 55.6107 18.7873 55.4643 19.3212L54.7632 22.0143H53.5312L55.2091 16.696ZM54.6407 19.8108H57.2034V20.7459H54.6407V19.8108Z" fill="#488A0F"/>
<path d="M18.5831 27.4548V27.3154C18.7464 27.2916 18.7737 27.2746 18.7737 27.0263V26.3225C18.7737 25.9824 18.6137 25.9212 18.4878 25.9212C18.4061 25.9212 18.3108 25.945 18.1849 26.047C18.1883 26.0946 18.1917 26.1558 18.1917 26.2171V27.0399C18.1917 27.2678 18.2053 27.2882 18.3925 27.312V27.4514H17.4736V27.312C17.654 27.2882 17.671 27.2746 17.671 27.0399V26.2987C17.671 26.0096 17.5587 25.9144 17.4055 25.9144C17.3034 25.9144 17.2047 25.9518 17.0924 26.0368V27.0399C17.0924 27.2678 17.1163 27.2882 17.2694 27.312V27.4514H16.3335V27.312C16.5581 27.2848 16.5717 27.2678 16.5717 27.0229V26.1592C16.5717 25.9314 16.5683 25.894 16.3743 25.8668V25.7376C16.6024 25.7138 16.8372 25.656 17.0924 25.5812C17.0924 25.6798 17.0924 25.792 17.0924 25.8872C17.1809 25.826 17.2558 25.7716 17.3409 25.7206C17.4668 25.6424 17.5655 25.5948 17.688 25.5948C17.916 25.5948 18.0692 25.7172 18.144 25.9042C18.2427 25.8294 18.3244 25.775 18.4265 25.7036C18.515 25.6458 18.6307 25.5948 18.7532 25.5948C19.1072 25.5948 19.2944 25.8362 19.2944 26.2511V27.0433C19.2944 27.2678 19.3148 27.2848 19.5156 27.3154V27.4548H18.5831Z" fill="#488A0F"/>
<path d="M21.0982 27.5024C20.9893 27.5024 20.8974 27.465 20.8464 27.4174C20.7885 27.3698 20.7613 27.3119 20.7409 27.2677C20.5843 27.3697 20.3869 27.5058 20.3086 27.5058C19.9581 27.5058 19.7539 27.2337 19.7539 26.9787C19.7539 26.7611 19.8526 26.6659 20.067 26.5775C20.3086 26.489 20.632 26.3904 20.7238 26.3088V26.1286C20.7238 25.9178 20.6456 25.7988 20.472 25.7988C20.4039 25.7988 20.3461 25.8328 20.3086 25.8804C20.261 25.945 20.244 26.0266 20.2099 26.149C20.1793 26.2578 20.1147 26.2884 20.033 26.2884C19.9275 26.2884 19.7913 26.1898 19.7913 26.0776C19.7913 26.0028 19.839 25.9518 19.9343 25.8872C20.1181 25.7648 20.3597 25.6458 20.5877 25.5981C20.7511 25.5981 20.8906 25.6355 21.0097 25.7172C21.1867 25.8396 21.2343 26.0096 21.2343 26.2204V26.9243C21.2343 27.1215 21.299 27.1691 21.3637 27.1691C21.4045 27.1691 21.4453 27.1555 21.4896 27.1351L21.5338 27.2745L21.0982 27.5024ZM20.7238 26.4754C20.649 26.5163 20.5775 26.5571 20.4958 26.6013C20.3699 26.6659 20.295 26.7407 20.295 26.8801C20.295 27.1079 20.455 27.1895 20.5435 27.1895C20.6013 27.1895 20.6592 27.1861 20.7238 27.1249C20.7238 26.9311 20.7238 26.6659 20.7238 26.4754Z" fill="#488A0F"/>
<path d="M23.79 27.4547C23.4701 27.4513 23.1944 27.4547 23.0447 27.4615C23.0311 27.4411 22.5342 26.6794 22.5172 26.6488C22.4798 26.6012 22.4559 26.5808 22.4355 26.574C22.4219 26.5706 22.4083 26.5706 22.3981 26.5706V27.0058C22.3981 27.2711 22.4185 27.2779 22.6397 27.3119V27.4513H21.6357V27.3119C21.8536 27.2779 21.874 27.2711 21.874 27.0058V25.1458C21.874 24.9248 21.8536 24.9044 21.6357 24.8568V24.731C21.8944 24.7106 22.1633 24.6664 22.3981 24.5916C22.3981 24.7582 22.3981 24.9214 22.3981 25.0846V26.4516C22.4934 26.4278 22.5614 26.3564 22.6261 26.2918C22.7282 26.1897 22.8779 26.0095 22.9256 25.9279C22.9732 25.8395 22.9086 25.7987 22.7588 25.7715V25.6355L23.6335 25.6015V25.7307C23.3816 25.7715 23.2489 25.8259 23.106 25.9755C23.0413 26.0401 22.9494 26.1523 22.8371 26.2816C22.9392 26.4414 23.3238 26.9582 23.4361 27.0976C23.5654 27.2473 23.6165 27.2813 23.79 27.3051V27.4547Z" fill="#488A0F"/>
<path d="M25.393 27.0535C25.1445 27.4207 24.8178 27.5023 24.6442 27.5023C24.0963 27.5023 23.7866 27.0977 23.7866 26.6148C23.7866 26.3292 23.9228 26.047 24.0929 25.8804C24.2767 25.6967 24.5047 25.5947 24.7293 25.5947C25.1309 25.5947 25.4066 25.9246 25.4032 26.2578C25.4032 26.3258 25.3998 26.3972 25.3487 26.4074C25.2705 26.4278 24.6953 26.455 24.3005 26.472C24.3175 26.9039 24.5592 27.1249 24.8518 27.1249C25.0118 27.1249 25.1718 27.0671 25.3181 26.9413L25.393 27.0535ZM24.6511 25.7613C24.4877 25.7613 24.3482 25.9518 24.3243 26.2748C24.4911 26.2714 24.6477 26.268 24.8178 26.2612C24.8757 26.2578 24.8995 26.2476 24.8995 26.1796C24.9029 25.979 24.811 25.7613 24.6511 25.7613Z" fill="#488A0F"/>
<path d="M28.3882 25.7818C28.1908 25.809 28.15 25.8498 28.0479 26.0708C27.9458 26.2816 27.8301 26.5876 27.5953 27.1555C27.3162 27.8152 27.2413 28.0838 27.1631 28.3184C27.1358 28.4069 27.0848 28.4375 27.0167 28.4375C26.8568 28.4375 26.6934 28.3184 26.6934 28.1756C26.6934 28.111 26.7172 28.077 26.8023 28.026C26.9623 27.9376 27.0712 27.8594 27.146 27.7336C27.1869 27.6656 27.2311 27.5534 27.2481 27.5058C27.2652 27.4479 27.2549 27.4105 27.2311 27.3493C27.0201 26.7611 26.7581 26.2034 26.6832 26.0334C26.6083 25.8634 26.5607 25.8124 26.3633 25.7852V25.6423H27.3843V25.7818C27.2073 25.809 27.1801 25.8396 27.2243 25.9654L27.5442 26.8257C27.6327 26.6012 27.7825 26.2272 27.8539 25.9994C27.8948 25.8702 27.8403 25.8158 27.6361 25.7818V25.6423H28.3848V25.7818H28.3882Z" fill="#488A0F"/>
<path d="M29.4259 25.5947C30.0011 25.5947 30.3652 26.0266 30.3652 26.5162C30.3652 27.1725 29.8922 27.5023 29.4089 27.5023C28.7929 27.5023 28.4424 27.0365 28.4424 26.5604C28.4424 25.9382 28.9563 25.5947 29.4259 25.5947ZM29.3749 25.7579C29.1979 25.7579 29.0277 25.9416 29.0277 26.4414C29.0277 26.9481 29.1945 27.3357 29.4532 27.3357C29.6097 27.3357 29.7765 27.2303 29.7765 26.6352C29.7765 26.0674 29.6301 25.7579 29.3749 25.7579Z" fill="#488A0F"/>
<path d="M32.6726 27.3562C32.4276 27.3902 32.1655 27.4412 31.8966 27.5025C31.8966 27.414 31.8966 27.3154 31.8966 27.2236C31.7299 27.363 31.5563 27.5025 31.3317 27.5025C30.988 27.5025 30.7974 27.2814 30.7974 26.9176V26.0743C30.7974 25.8873 30.7736 25.8669 30.6613 25.8363L30.5762 25.8125V25.6832C30.7838 25.6764 31.1071 25.6458 31.3351 25.6152C31.3283 25.7853 31.3215 25.9995 31.3215 26.2307V26.8258C31.3215 27.091 31.4576 27.1794 31.6006 27.1794C31.7163 27.1794 31.8048 27.1556 31.8932 27.0604V26.0777C31.8932 25.8907 31.8728 25.8567 31.7571 25.8363L31.6346 25.8125V25.6832C31.8728 25.6764 32.2166 25.6458 32.4208 25.6152V26.9448C32.4208 27.1556 32.4446 27.2032 32.5773 27.2134L32.6658 27.2202V27.3562H32.6726Z" fill="#488A0F"/>
<path d="M33.9421 27.4548H32.8633V27.3154C33.0811 27.2916 33.1015 27.2712 33.1015 27.0264V26.1321C33.1015 25.928 33.0845 25.9076 32.8939 25.8668V25.741C33.1458 25.7138 33.3772 25.6628 33.629 25.5846C33.629 25.7206 33.629 25.894 33.629 26.0266C33.8128 25.7444 33.9591 25.5948 34.1259 25.5948C34.2756 25.5948 34.3914 25.6968 34.3914 25.8396C34.3914 26.0402 34.2484 26.1525 34.1838 26.1865C34.1259 26.2103 34.0851 26.1899 34.0578 26.1661C33.9898 26.1083 33.9353 26.0436 33.8673 26.0436C33.806 26.0436 33.7039 26.0981 33.629 26.2511V27.0264C33.629 27.2712 33.6562 27.2848 33.9421 27.3154V27.4548Z" fill="#488A0F"/>
<path d="M35.3853 27.4548V27.3154C35.6167 27.278 35.6269 27.2576 35.6269 27.0026V25.146C35.6269 24.9351 35.6031 24.9079 35.3887 24.8637V24.7345C35.6711 24.7073 35.957 24.6563 36.151 24.5951C36.151 24.7787 36.151 24.9623 36.151 25.1494V27.0026C36.151 27.2712 36.1646 27.2882 36.396 27.3154V27.4548H35.3853Z" fill="#488A0F"/>
<path d="M36.583 27.4549V27.3154C36.8042 27.2882 36.828 27.2712 36.828 26.9822V26.1865C36.828 25.9145 36.8076 25.8975 36.617 25.8737V25.7377C36.8757 25.7104 37.1309 25.656 37.3556 25.5914C37.3556 25.7615 37.3556 25.9315 37.3556 26.0981V26.9822C37.3556 27.261 37.3726 27.2882 37.6074 27.3154V27.4549H36.583ZM37.0629 25.3432C36.9063 25.3432 36.7702 25.214 36.7702 25.0542C36.7702 24.8876 36.9097 24.7651 37.0697 24.7651C37.233 24.7651 37.3624 24.8876 37.3624 25.0542C37.359 25.2106 37.2296 25.3432 37.0629 25.3432Z" fill="#488A0F"/>
<path d="M39.6563 25.7818C39.4351 25.8192 39.4045 25.8634 39.316 26.0538C39.173 26.3802 38.962 26.8801 38.717 27.499H38.5468C38.3426 26.9923 38.1555 26.5128 37.9581 26.0436C37.8832 25.8668 37.8458 25.8192 37.6313 25.7818V25.6423H38.6523V25.7818C38.4686 25.8192 38.4447 25.8498 38.4924 25.9858C38.5945 26.268 38.7408 26.6591 38.8055 26.8257C38.8736 26.6455 39.0131 26.2918 39.1084 26.0096C39.1492 25.8872 39.1424 25.809 38.8872 25.7818V25.6423H39.6529V25.7818H39.6563Z" fill="#488A0F"/>
<path d="M41.3002 27.0535C41.0518 27.4207 40.7251 27.5023 40.5549 27.5023C40.007 27.5023 39.6973 27.0977 39.6973 26.6148C39.6973 26.3292 39.8334 26.047 40.0036 25.8804C40.1873 25.6967 40.4154 25.5947 40.64 25.5947C41.0382 25.5947 41.3172 25.9246 41.3138 26.2578C41.3138 26.3258 41.3104 26.3972 41.2594 26.4074C41.1811 26.4278 40.6059 26.455 40.2112 26.472C40.2282 26.9039 40.4698 27.1249 40.7625 27.1249C40.9225 27.1249 41.0824 27.0671 41.2287 26.9413L41.3002 27.0535ZM40.5583 25.7613C40.3949 25.7613 40.2554 25.9518 40.2316 26.2748C40.3983 26.2714 40.5549 26.268 40.7251 26.2612C40.7829 26.2578 40.8067 26.2476 40.8067 26.1796C40.8101 25.979 40.7183 25.7613 40.5583 25.7613Z" fill="#488A0F"/>
<path d="M43.3216 27.4581C43.2535 27.4921 43.1855 27.5023 43.1582 27.5023C42.8451 27.5023 42.6579 27.3561 42.6579 26.9855V25.8463H42.3959L42.3721 25.7987L42.4912 25.6423H42.6579V25.3023C42.7975 25.2037 42.9983 25.0744 43.1412 24.9758L43.1957 25.0098C43.1923 25.1186 43.1821 25.3363 43.1889 25.6423H43.5973C43.6347 25.6831 43.6177 25.8089 43.5632 25.8463H43.1889V26.846C43.1889 27.1657 43.3182 27.1997 43.3965 27.1997C43.4645 27.1997 43.519 27.1861 43.5939 27.1589L43.6347 27.3051L43.3216 27.4581Z" fill="#488A0F"/>
<path d="M45.1729 27.5024C45.064 27.5024 44.9721 27.465 44.9211 27.4174C44.8632 27.3698 44.836 27.3119 44.8156 27.2677C44.659 27.3697 44.4616 27.5058 44.3834 27.5058C44.0328 27.5058 43.8286 27.2337 43.8286 26.9787C43.8286 26.7611 43.9273 26.6659 44.1417 26.5775C44.3833 26.489 44.7067 26.3904 44.7985 26.3088V26.1286C44.7985 25.9178 44.7203 25.7988 44.5467 25.7988C44.4786 25.7988 44.4208 25.8328 44.3834 25.8804C44.3357 25.945 44.3187 26.0266 44.2847 26.149C44.2574 26.2578 44.1894 26.2884 44.1077 26.2884C44.0022 26.2884 43.866 26.1898 43.866 26.0776C43.866 26.0028 43.9137 25.9518 44.009 25.8872C44.1928 25.7648 44.4344 25.6458 44.6624 25.5981C44.8258 25.5981 44.9653 25.6355 45.0844 25.7172C45.2614 25.8396 45.309 26.0096 45.309 26.2204V26.9243C45.309 27.1215 45.3737 27.1691 45.4384 27.1691C45.4792 27.1691 45.52 27.1555 45.5643 27.1351L45.6085 27.2745L45.1729 27.5024ZM44.7951 26.4754C44.7203 26.5163 44.6488 26.5571 44.5671 26.6013C44.4412 26.6659 44.3663 26.7407 44.3663 26.8801C44.3663 27.1079 44.5263 27.1895 44.6148 27.1895C44.6726 27.1895 44.7305 27.1861 44.7951 27.1249C44.7951 26.9311 44.7951 26.6659 44.7951 26.4754Z" fill="#488A0F"/>
<path d="M46.8951 26.1728C46.7896 25.8872 46.6501 25.758 46.4595 25.758C46.3472 25.758 46.2417 25.8396 46.2417 25.9756C46.2417 26.1184 46.3438 26.1966 46.5548 26.2884C46.8849 26.4346 47.1095 26.5741 47.1095 26.8971C47.1095 27.3051 46.7215 27.5058 46.3676 27.5058C46.1566 27.5058 45.9354 27.4242 45.8503 27.3834C45.8333 27.2881 45.7959 27.0093 45.7856 26.8665L45.9218 26.8427C46.0069 27.1011 46.1736 27.3391 46.4391 27.3391C46.5956 27.3391 46.6705 27.2439 46.6705 27.1283C46.6705 27.0025 46.6092 26.9073 46.3574 26.7849C46.0885 26.6557 45.8265 26.5129 45.8265 26.1728C45.8265 25.8498 46.0919 25.5981 46.5242 25.5981C46.7215 25.5981 46.8713 25.6389 46.9632 25.6594C46.9768 25.7682 47.0108 26.03 47.0278 26.1422L46.8951 26.1728Z" fill="#488A0F"/>
<path d="M48.2396 27.4581C48.1715 27.4921 48.1034 27.5023 48.0762 27.5023C47.7631 27.5023 47.5759 27.3561 47.5759 26.9855V25.8463H47.3139L47.29 25.7987L47.4092 25.6423H47.5759V25.3023C47.7154 25.2037 47.9162 25.0744 48.0592 24.9758L48.1136 25.0098C48.1102 25.1186 48.1 25.3363 48.1068 25.6423H48.5152C48.5527 25.6831 48.5356 25.8089 48.4812 25.8463H48.1068V26.846C48.1068 27.1657 48.2362 27.1997 48.3144 27.1997C48.3825 27.1997 48.4369 27.1861 48.5118 27.1589L48.5527 27.3051L48.2396 27.4581Z" fill="#488A0F"/>
<path d="M50.5845 25.7818C50.3871 25.809 50.3463 25.8498 50.2442 26.0708C50.1421 26.2816 50.0264 26.5876 49.7916 27.1555C49.5125 27.8152 49.4376 28.0838 49.3593 28.3184C49.3321 28.4069 49.2811 28.4375 49.213 28.4375C49.053 28.4375 48.8897 28.3184 48.8897 28.1756C48.8897 28.111 48.9135 28.077 48.9986 28.026C49.1586 27.9376 49.2675 27.8594 49.3423 27.7336C49.3832 27.6656 49.4274 27.5534 49.4444 27.5058C49.4614 27.4479 49.4512 27.4105 49.4274 27.3493C49.2164 26.7611 48.9544 26.2034 48.8795 26.0334C48.8046 25.8634 48.757 25.8124 48.5596 25.7852V25.6423H49.5806V25.7818C49.4036 25.809 49.3764 25.8396 49.4206 25.9654L49.7371 26.8257C49.8256 26.6012 49.9753 26.2272 50.0468 25.9994C50.0877 25.8702 50.0332 25.8158 49.829 25.7818V25.6423H50.5743V25.7818H50.5845Z" fill="#488A0F"/>
</g>
<defs>
<filter id="filter0_d_140_1425" x="0" y="0" width="68" height="68" filterUnits="userSpaceOnUse" color-interpolation-filters="sRGB">
<feFlood flood-opacity="0" result="BackgroundImageFix"/>
<feColorMatrix in="SourceAlpha" type="matrix" values="0 0 0 0 0 0 0 0 0 0 0 0 0 0 0 0 0 0 127 0" result="hardAlpha"/>
<feOffset dy="4"/>
<feGaussianBlur stdDeviation="2"/>
<feComposite in2="hardAlpha" operator="out"/>
<feColorMatrix type="matrix" values="0 0 0 0 0 0 0 0 0 0 0 0 0 0 0 0 0 0 0.25 0"/>
<feBlend mode="normal" in2="BackgroundImageFix" result="effect1_dropShadow_140_1425"/>
<feBlend mode="normal" in="SourceGraphic" in2="effect1_dropShadow_140_1425" result="shape"/>
</filter>
</defs>
</svg>
